# xmcd CD database file
#
# Track frame offsets:
#	150
#	15173
#	44788
#	54672
#	70700
#	84114
#	109185
#	127489
#	137055
#	146884
#	157998
#	181253
#
# Disc length: 2536 seconds
#
# Revision: 0
# Processed by: cddbd v1.5.2PL0 Copyright (c) Steve Scherf et al.
# Submitted via: CDex 2.06
#
DISCID=a709e60c
DTITLE=Roberto Negro - DADADA Saison 3
DYEAR=2017
DGENRE=Jazz
TTITLE0=Sangu
TTITLE1=Gloria e la Poetessa
TTITLE2=Bagatelle
TTITLE3=Shampoo
TTITLE4=Poucet
TTITLE5=Nano
TTITLE6=Ceci est un Merengue
TTITLE7=The Vanishing of Sally Queen
TTITLE8=Brimborion
TTITLE9=The Upside Down
TTITLE10=Rudi
TTITLE11=Behind the Scene
EXTD=YEAR: 2017
EXTT0=
EXTT1=
EXTT2=
EXTT3=
EXTT4=
EXTT5=
EXTT6=
EXTT7=
EXTT8=
EXTT9=
EXTT10=
EXTT11=
PLAYORDER=
